#!OML:ASF F:\VICON\USERDATA\INSTALL\rory3\rory3.ASF
:FULLY-SPECIFIED
:DEGREES
1803
root -1.95181 18.5077 0.00875681 -183.06 3.09661 181.993
lowerback 4.62773 -3.39249 -6.63085
upperback 2.3051 -4.53857 -3.21522
thorax 0.0571108 -2.18879 0.579386
lowerneck -7.01394 -8.72855 -13.0448
upperneck 20.2052 -11.7137 10.7487
head 8.88297 -5.32156 4.60256
rclavicle -1.13307e-014 -7.63333e-014
rhumerus 53.7688 -28.1999 -52.875
rradius 13.9186
rwrist 64.3499
rhand -42.8099 -21.4118
rfingers 7.12502
rthumb -15.6753 -50.7968
lclavicle -1.13307e-014 -7.63333e-014
lhumerus 89.2962 -34.103 27.1761
lradius 36.8169
lwrist -30.8169
lhand -39.1161 28.8089
lfingers 7.12502
lthumb -12.1156 58.4381
rfemur -14.8699 17.559 13.7365
rtibia 33.2996
rfoot -12.6609 -8.35786
rtoes -5.07736
lfemur 2.50081 -0.156117 -17.4777
ltibia 26.2732
lfoot -24.8144 19.8232
ltoes -3.04973
1804
root -1.96077 18.4979 0.0197174 -183.142 3.92249 181.988
lowerback 4.6036 -3.34816 -6.81881
upperback 2.28149 -4.48996 -3.16123
thorax 0.0629278 -2.16791 0.735178
lowerneck -7.33756 -8.59544 -13.1984
upperneck 20.4314 -11.4602 10.6201
head 8.98902 -5.21584 4.60693
rclavicle -1.3418e-014 -9.54166e-015
rhumerus 52.9854 -26.3083 -50.6272
rradius 14.126
rwrist 61.2233
rhand -44.0584 -18.3909
rfingers 7.12502
rthumb -16.8774 -47.6775
lclavicle -1.3418e-014 -9.54166e-015
lhumerus 88.8237 -33.9476 27.5356
lradius 36.3436
lwrist -30.8773
lhand -38.3635 29.3804
lfingers 7.12502
lthumb -11.3898 59.051
rfemur -15.3499 17.7012 13.5002
rtibia 33.7179
rfoot -12.3084 -7.2188
rtoes -4.66408
lfemur 2.602 0.0550162 -17.6201
ltibia 26.4659
lfoot -25.1905 20.3177
ltoes -2.93138
1805
root -1.96776 18.4888 0.0289342 -183.294 4.70665 182.062
lowerback 4.65978 -3.29332 -6.94322
upperback 2.28007 -4.43235 -3.07596
thorax 0.0431806 -2.14257 0.892347
lowerneck -7.6237 -8.48238 -13.3104
upperneck 20.5952 -11.2391 10.4821
head 9.06802 -5.12635 4.59789
rclavicle 2.38542e-015 -3.81667e-014
rhumerus 52.5165 -24.6908 -48.8005
rradius 14.4188
rwrist 59.66
rhand -44.7042 -16.4851
rfingers 7.12502
rthumb -17.499 -45.7175
lclavicle 2.38542e-015 -3.81667e-014
lhumerus 88.2281 -33.8313 28.0962
lradius 35.9753
lwrist -30.5694
lhand -38.4122 30.2434
lfingers 7.12502
lthumb -11.4369 59.9114
rfemur -15.7221 17.8721 13.3841
rtibia 34.0746
rfoot -12.0481 -6.04276
rtoes -5.14299
lfemur 2.79451 0.258245 -17.6482
ltibia 26.6085
lfoot -25.5289 20.7582
ltoes -2.79316
1806
root -1.97627 18.4813 0.0392736 -183.493 5.35125 182.183
lowerback 4.76119 -3.24761 -6.93836
upperback 2.33626 -4.37963 -3.00989
thorax 0.0460663 -2.11902 0.959934
lowerneck -7.84465 -8.407 -13.4118
upperneck 20.5867 -11.085 10.3821
head 9.08616 -5.07163 4.59095
rclavicle -7.09661e-014 -9.22361e-014
rhumerus 52.5612 -23.9566 -48.1296
rradius 14.8457
rwrist 60.5144
rhand -44.7336 -15.2546
rfingers 7.12502
rthumb -17.5273 -44.4844
lclavicle -7.09661e-014 -9.22361e-014
lhumerus 87.6364 -33.712 28.696
lradius 35.6834
lwrist -30.523
lhand -38.7558 31.5204
lfingers 7.12502
lthumb -11.7681 61.1698
rfemur -15.9869 17.9659 13.3255
rtibia 34.3753
rfoot -11.7561 -4.81824
rtoes -5.64361
lfemur 3.05549 0.276411 -17.6406
ltibia 26.6759
lfoot -25.8846 21.1692
ltoes -2.31087
1807
root -1.98568 18.4711 0.0480373 -183.651 5.94481 182.155
lowerback 4.80131 -3.20271 -6.97234
upperback 2.39439 -4.31611 -3.04598
thorax 0.0798522 -2.0871 0.939649
lowerneck -8.16802 -8.34915 -13.3402
upperneck 20.6289 -10.9508 10.1695
head 9.12581 -5.01984 4.51101
rclavicle -6.38099e-014 -2.06736e-014
rhumerus 52.866 -23.7127 -48.1441
rradius 15.1722
rwrist 62.4804
rhand -44.3482 -14.106
rfingers 7.12502
rthumb -17.1564 -43.3686
lclavicle -6.38099e-014 -2.06736e-014
lhumerus 87.1046 -33.6574 29.1227
lradius 35.8266
lwrist -29.9411
lhand -37.6987 31.6921
lfingers 7.12502
lthumb -10.7486 61.3971
rfemur -16.2955 18.0024 13.0461
rtibia 34.6298
rfoot -11.4366 -3.46804
rtoes -5.16113
lfemur 3.30665 0.335072 -17.7954
ltibia 26.6706
lfoot -26.2188 21.5139
ltoes -1.8157
1808
root -1.99335 18.4624 0.0521566 -183.79 6.48455 181.922
lowerback 4.81845 -3.16437 -7.1907
upperback 2.3978 -4.26556 -3.14379
thorax 0.0806909 -2.0585 0.957818
lowerneck -8.42473 -8.27213 -13.2612
upperneck 20.7 -10.801 9.99142
head 9.16298 -4.95616 4.44755
rclavicle -4.70623e-014 4.77083e-015
rhumerus 52.6226 -22.8418 -47.1165
rradius 15.556
rwrist 62.9994
rhand -44.461 -13.3792
rfingers 7.12502
rthumb -17.265 -42.6323
lclavicle -4.70623e-014 4.77083e-015
lhumerus 86.4916 -33.6294 29.5356
lradius 35.9207
lwrist -30.0288
lhand -37.6775 32.4329
lfingers 7.12502
lthumb -10.7282 62.1389
rfemur -16.6111 17.9638 12.5142
rtibia 34.8073
rfoot -11.1708 -2.14476
rtoes -5.07102
lfemur 3.52705 0.411841 -18.163
ltibia 26.6538
lfoot -26.5623 21.8
ltoes -1.38458
1809
root -1.99757 18.4561 0.0551465 -184.036 7.04985 181.721
lowerback 5.00176 -3.08143 -7.3722
upperback 2.36665 -4.17464 -3.23066
thorax -0.052139 -2.00531 0.976831
lowerneck -8.53634 -8.22899 -13.1962
upperneck 20.7484 -10.6987 9.77237
head 9.17072 -4.92314 4.37017
rclavicle -2.61899e-014 1.11319e-014
rhumerus 51.5284 -20.9668 -44.2688
rradius 16.0584
rwrist 61.0363
rhand -44.7242 -12.9362
rfingers 7.12502
rthumb -17.5182 -42.1669
lclavicle -2.61899e-014 1.11319e-014
lhumerus 85.9889 -33.6877 29.6606
lradius 36.4452
lwrist -29.2042
lhand -36.8511 32.7015
lfingers 7.12502
lthumb -9.93103 62.4473
rfemur -16.7562 18.0191 12.075
rtibia 34.9014
rfoot -10.9539 -1.05051
rtoes -5.18135
lfemur 3.86036 0.579797 -18.4602
ltibia 26.6368
lfoot -26.7283 22.1213
ltoes -1.46171
1810
root -1.99863 18.4471 0.0610448 -184.254 7.62018 181.803
lowerback 5.23858 -3.03479 -7.27991
upperback 2.30449 -4.14158 -3.22043
thorax -0.25764 -1.98294 0.951942
lowerneck -8.52527 -8.12771 -13.1404
upperneck 20.7176 -10.5097 9.49673
head 9.1149 -4.86023 4.2892
rclavicle -9.28573e-014 8.5875e-014
rhumerus 50.6901 -19.1209 -41.7663
rradius 16.5029
rwrist 59.058
rhand -44.6521 -12.6504
rfingers 7.12502
rthumb -17.4488 -41.8873
lclavicle -9.28573e-014 8.5875e-014
lhumerus 85.1105 -33.7615 30.1703
lradius 36.8214
lwrist -29.5011
lhand -37.1585 32.9104
lfingers 7.12502
lthumb -10.2276 62.6418
rfemur -16.8412 18.1947 11.9778
rtibia 34.9059
rfoot -10.7527 -0.417075
rtoes -5.04983
lfemur 4.17913 0.827812 -18.3944
ltibia 26.6172
lfoot -26.793 22.404
ltoes -1.72243
1811
root -1.99823 18.438 0.0618609 -184.396 8.10665 181.915
lowerback 5.31259 -3.02307 -7.1296
upperback 2.27758 -4.13304 -3.22346
thorax -0.339378 -1.97691 0.871677
lowerneck -8.54273 -8.00673 -13.0472
upperneck 20.6669 -10.3122 9.29481
head 9.05875 -4.7824 4.22816
rclavicle 1.33683e-014 0
rhumerus 50.3567 -17.9509 -40.4723
rradius 16.8037
rwrist 58.1344
rhand -44.6452 -12.569
rfingers 7.12502
rthumb -17.4422 -41.8064
lclavicle 1.33683e-014 0
lhumerus 84.1772 -33.8355 30.8153
lradius 37.2099
lwrist -30.2332
lhand -37.4084 33.9544
lfingers 7.12502
lthumb -10.4687 63.6738
rfemur -16.9266 18.3619 11.875
rtibia 34.8355
rfoot -10.8279 -0.123896
rtoes -4.67395
lfemur 4.42638 1.09153 -18.2652
ltibia 26.6102
lfoot -26.9288 22.521
ltoes -1.62886
1812
root -1.99421 18.4255 0.0573391 -184.645 8.55517 181.746
lowerback 5.36353 -2.96438 -7.26496
upperback 2.33596 -4.05071 -3.32142
thorax -0.309042 -1.93259 0.84237
lowerneck -8.81595 -7.95537 -12.7826
upperneck 20.7286 -10.2026 8.99975
head 9.08515 -4.73453 4.08799
rclavicle 2.41275e-014 -7.95139e-014
rhumerus 50.1965 -17.2372 -39.6339
rradius 16.9837
rwrist 57.453
rhand -44.5456 -12.4607
rfingers 7.12502
rthumb -17.3464 -41.7067
lclavicle 2.41275e-014 -7.95139e-014
lhumerus 83.4948 -33.8534 31.1943
lradius 37.7195
lwrist -30.3067
lhand -37.8968 34.6552
lfingers 7.12502
lthumb -10.9397 64.3502
rfemur -16.8831 18.4711 11.4774
rtibia 34.6851
rfoot -11.0571 -0.157874
rtoes -4.26366
lfemur 4.76029 1.36017 -18.4308
ltibia 26.6241
lfoot -27.1622 22.5884
ltoes -1.39813
1813
root -1.98677 18.4165 0.0533777 -184.87 8.89281 181.558
lowerback 5.39502 -2.90957 -7.40412
upperback 2.41954 -3.96559 -3.45492
thorax -0.243902 -1.88625 0.776389
lowerneck -9.03386 -7.94483 -12.4684
upperneck 20.6685 -10.1817 8.77844
head 9.0712 -4.7216 3.95425
rclavicle 2.64632e-014 7.15625e-014
rhumerus 50.3438 -17.1935 -39.7777
rradius 16.9725
rwrist 57.4586
rhand -44.3981 -12.2623
rfingers 7.12502
rthumb -17.2044 -41.5207
lclavicle 2.64632e-014 7.15625e-014
lhumerus 83.0862 -33.8855 31.1371
lradius 38.3294
lwrist -29.8492
lhand -38.079 34.6017
lfingers 7.12502
lthumb -11.1155 64.2874
rfemur -16.8267 18.5341 11.0646
rtibia 34.4738
rfoot -11.306 -0.649221
rtoes -3.89856
lfemur 5.06287 1.65011 -18.5756
ltibia 26.5754
lfoot -27.1763 22.6813
ltoes -1.78078
1814
root -1.97661 18.4136 0.0514818 -184.956 9.23913 181.658
lowerback 5.44838 -2.89244 -7.29578
upperback 2.38298 -3.95036 -3.45516
thorax -0.320886 -1.87698 0.720548
lowerneck -9.05212 -7.91412 -12.3562
upperneck 20.6151 -10.1259 8.623
head 9.0345 -4.70421 3.88787
rclavicle -7.45443e-017 -4.13472e-014
rhumerus 50.5952 -17.1505 -40.3212
rradius 16.9813
rwrist 57.4202
rhand -44.2563 -11.8537
rfingers 7.12502
rthumb -17.0679 -41.1239
lclavicle -7.45443e-017 -4.13472e-014
lhumerus 82.3983 -33.9913 31.2028
lradius 39.1449
lwrist -29.6758
lhand -37.7359 34.5207
lfingers 7.12502
lthumb -10.7845 64.2239
rfemur -16.871 18.745 10.9525
rtibia 34.2114
rfoot -11.6255 -1.49535
rtoes -3.38491
lfemur 5.29484 1.87375 -18.4083
ltibia 26.4429
lfoot -27.2149 22.7129
ltoes -1.65123
1815
root -1.96312 18.4121 0.0462067 -185.068 9.55096 181.639
lowerback 5.45472 -2.92594 -7.35095
upperback 2.3288 -4.0081 -3.41711
thorax -0.370373 -1.90654 0.794583
lowerneck -9.02967 -7.8524 -12.4913
upperneck 20.624 -9.99374 8.50555
head 9.02011 -4.66597 3.88673
rclavicle -5.2504e-014 1.27222e-014
rhumerus 50.7795 -16.7288 -40.3967
rradius 17.1047
rwrist 56.829
rhand -43.871 -11.7396
rfingers 7.12502
rthumb -16.697 -41.0415
lclavicle -5.2504e-014 1.27222e-014
lhumerus 81.1837 -34.0058 31.9165
lradius 39.696
lwrist -30.7157
lhand -38.4919 34.4539
lfingers 7.12502
lthumb -11.5137 64.1177
rfemur -16.8629 19.0092 10.7105
rtibia 33.88
rfoot -12.1237 -2.51816
rtoes -3.6985
lfemur 5.561 2.02058 -18.3821
ltibia 26.29
lfoot -27.2758 22.7663
ltoes -1.39381
1816
root -1.94899 18.4099 0.0373538 -185.259 9.72947 181.484
lowerback 5.40242 -2.95378 -7.4615
upperback 2.40765 -4.03024 -3.48121
thorax -0.253717 -1.91868 0.784245
lowerneck -9.18342 -7.86554 -12.5288
upperneck 20.6224 -9.97834 8.41621
head 9.04398 -4.67054 3.85798
rclavicle -5.47155e-014 -3.33958e-014
rhumerus 51.1208 -16.8059 -40.9449
rradius 17.1699
rwrist 56.85
rhand -43.3275 -12.3588
rfingers 7.12502
rthumb -16.1737 -41.7041
lclavicle -5.47155e-014 -3.33958e-014
lhumerus 80.4146 -33.9835 32.1377
lradius 40.6357
lwrist -30.1995
lhand -38.2806 34.4118
lfingers 7.12502
lthumb -11.3099 64.0869
rfemur -16.6842 19.1463 10.3319
rtibia 33.4765
rfoot -12.601 -3.7804
rtoes -4.85722
lfemur 5.89178 2.22735 -18.4675
ltibia 26.1222
lfoot -27.2052 22.7655
ltoes -1.52669
